#!OML:ASF E:\emotionWalksFemale\Project 1\Capture day 1\Session 1\Female1.ASF
:FULLY-SPECIFIED
:DEGREES
983
root 17.6726 15.152 -36.0611 393.519 74.3844 396.158
lowerback 7.32091 -2.71555 -8.26733
upperback -3.5166 -4.53101 -0.667537
thorax -7.26679 -1.82284 4.51072
lowerneck 1.95279 -10.961 -18.5256
upperneck 8.81016 -16.2404 18.2545
head 5.35722 -8.05127 7.77828
rclavicle -9.7653e-014 -9.54166e-015
rhumerus -51.2282 7.02248 -76.6968
rradius 37.126
rwrist 11.9402
rhand -1.23579 -52.754
rfingers 7.12502
rthumb 24.4062 -81.2195
lclavicle -9.7653e-014 -9.54166e-015
lhumerus -25.667 3.81203 78.8269
lradius 43.9367
lwrist -5.61556
lhand -8.50429 -32.9095
lfingers 7.12502
lthumb 17.4236 -3.67041
rfemur -29.7822 33.4713 7.77731
rtibia 20.295
rfoot -72.2433 -44.7923
rtoes 51.3159
lfemur 16.3465 -8.98886 -34.1827
ltibia 9.60411
lfoot -15.5982 17.693
ltoes -31.0784
984
root 17.8012 15.1414 -36.0014 394.544 74.1461 397.367
lowerback 7.4381 -2.77979 -8.65144
upperback -3.57992 -4.68055 -0.813924
thorax -7.37023 -1.87198 4.59542
lowerneck 1.88251 -11.132 -18.154
upperneck 8.80473 -16.4239 17.8471
head 5.33483 -8.13795 7.55678
rclavicle -1.61513e-014 -3.49861e-014
rhumerus -51.3222 7.00861 -76.7085
rradius 37.1009
rwrist 11.7705
rhand -1.50299 -52.5954
rfingers 7.12502
rthumb 24.15 -81.0952
lclavicle -1.61513e-014 -3.49861e-014
lhumerus -25.9146 3.54877 79.0585
lradius 44.0381
lwrist -5.57333
lhand -8.56282 -33.0314
lfingers 7.12502
lthumb 17.3672 -3.78728
rfemur -29.2738 32.5702 8.05296
rtibia 20.4645
rfoot -69.7154 -45.4618
rtoes 50.1739
lfemur 17.1149 -8.36535 -34.3166
ltibia 9.38096
lfoot -15.5912 16.5341
ltoes -28.3789
985
root 17.9283 15.1352 -35.9418 394.693 73.9606 397.549
lowerback 7.25965 -2.78543 -8.69609
upperback -3.5573 -4.68262 -1.01673
thorax -7.25599 -1.88138 4.39224
lowerneck 1.91095 -11.3037 -17.6549
upperneck 8.55258 -16.6179 17.6479
head 5.22882 -8.22698 7.39289
rclavicle -4.83544e-014 1.82882e-014
rhumerus -51.4245 6.62168 -76.8625
rradius 37.205
rwrist 11.5418
rhand -1.80187 -52.6401
rfingers 7.12502
rthumb 23.8634 -81.1776
lclavicle -4.83544e-014 1.82882e-014
lhumerus -25.9585 3.08445 79.1841
lradius 44.0599
lwrist -5.60889
lhand -7.87478 -33.3848
lfingers 7.12502
lthumb 18.0293 -4.20043
rfemur -28.6243 30.8777 8.95189
rtibia 20.5683
rfoot -65.9424 -45.6746
rtoes 49.1882
lfemur 17.5445 -7.66895 -34.1474
ltibia 9.51805
lfoot -14.9652 15.7932
ltoes -29.8058
986
root 18.055 15.1337 -35.8808 394.117 73.8277 396.92
lowerback 6.6747 -2.68475 -8.36241
upperback -3.32336 -4.45699 -1.40484
thorax -6.74715 -1.8267 3.72756
lowerneck 2.07579 -11.5897 -16.71
upperneck 8.00888 -16.9705 17.6381
head 5.01709 -8.3843 7.21765
rclavicle 6.87298e-014 8.34896e-015
rhumerus -51.3983 5.31774 -76.963
rradius 37.3234
rwrist 11.7432
rhand -1.83336 -52.6883
rfingers 7.12502
rthumb 23.8332 -81.2299
lclavicle 6.87298e-014 8.34896e-015
lhumerus -25.5714 2.07371 79.171
lradius 43.985
lwrist -5.39538
lhand -7.62701 -33.6435
lfingers 7.12502
lthumb 18.2677 -4.48124
rfemur -27.7415 27.8778 10.6085
rtibia 20.5416
rfoot -59.8225 -46.1288
rtoes 47.1565
lfemur 17.6222 -6.91965 -33.6994
ltibia 10.2189
lfoot -14.4788 14.9327
ltoes -30.4637
987
root 18.1807 15.1349 -35.8266 393.77 73.7869 396.576
lowerback 6.80387 -2.91375 -8.10363
upperback -3.49214 -4.75777 -1.30081
thorax -6.97575 -1.96947 3.74016
lowerneck 2.09467 -11.5374 -16.9965
upperneck 7.9683 -16.8826 17.4551
head 4.99436 -8.35983 7.21275
rclavicle -1.74931e-014 2.54444e-014
rhumerus -51.3867 5.79232 -76.8781
rradius 37.3211
rwrist 11.7846
rhand -1.85197 -52.4631
rfingers 7.12502
rthumb 23.8154 -81.0069
lclavicle -1.74931e-014 2.54444e-014
lhumerus -26.1582 2.54986 79.3883
lradius 44.1025
lwrist -5.39726
lhand -8.35725 -33.8439
lfingers 7.12502
lthumb 17.5651 -4.61738
rfemur -26.7806 24.9777 12.1316
rtibia 20.342
rfoot -53.944 -46.5826
rtoes 44.7067
lfemur 17.4744 -6.27559 -33.2701
ltibia 11.4239
lfoot -14.2161 13.9428
ltoes -29.8214
988
root 18.3108 15.1426 -35.7625 393.175 73.7574 396.004
lowerback 6.75564 -2.96651 -7.75561
upperback -3.54446 -4.79927 -1.41557
thorax -7.03353 -2.00512 3.43078
lowerneck 2.38494 -11.608 -16.8328
upperneck 7.57428 -16.981 17.5174
head 4.83553 -8.42205 7.21884
rclavicle 4.9895e-014 2.38542e-015
rhumerus -51.4383 5.61107 -76.9973
rradius 37.2879
rwrist 11.7182
rhand -1.71156 -52.3175
rfingers 7.12502
rthumb 23.95 -80.8437
lclavicle 4.9895e-014 2.38542e-015
lhumerus -26.4591 2.39173 79.4251
lradius 44.1008
lwrist -5.6555
lhand -8.56124 -34.0061
lfingers 7.12502
lthumb 17.3687 -4.76213
rfemur -25.8656 22.2357 13.6327
rtibia 20.1267
rfoot -48.9312 -46.4799
rtoes 42.7365
lfemur 17.2595 -5.45499 -32.6679
ltibia 12.7895
lfoot -14.1244 12.8159
ltoes -28.8688
989
root 18.4425 15.1565 -35.6911 391.839 73.749 394.638
lowerback 6.60937 -2.97446 -7.34087
upperback -3.58286 -4.75879 -1.42061
thorax -7.02399 -2.00564 3.18431
lowerneck 2.63919 -11.6641 -16.821
upperneck 7.25911 -17.0731 17.6793
head 4.72841 -8.48018 7.27808
rclavicle 3.66758e-014 1.94809e-014
rhumerus -51.6565 5.41306 -77.1045
rradius 37.4688
rwrist 11.5493
rhand -0.826734 -53.0609
rfingers 7.12502
rthumb 24.7983 -81.4731
lclavicle 3.66758e-014 1.94809e-014
lhumerus -26.7835 2.25549 79.5183
lradius 44.0958
lwrist -5.88074
lhand -7.93542 -33.9662
lfingers 7.12502
lthumb 17.971 -4.77649
rfemur -25.2129 20.4404 15.0034
rtibia 20.0285
rfoot -44.9097 -46.9435
rtoes 40.9717
lfemur 17.0686 -4.63013 -31.8314
ltibia 14.1034
lfoot -14.0191 11.5973
ltoes -27.1944
990
root 18.5723 15.1699 -35.6139 390.303 73.69 392.994
lowerback 6.47261 -3.05361 -7.06105
upperback -3.69807 -4.82044 -1.2066
thorax -7.06343 -2.04139 3.25615
lowerneck 2.72633 -11.6471 -17.1499
upperneck 7.12468 -17.0595 17.739
head 4.70571 -8.48903 7.35456
rclavicle -1.16786e-014 -1.19271e-015
rhumerus -51.7819 5.66015 -77.045
rradius 37.6349
rwrist 11.4598
rhand 0.560101 -54.5893
rfingers 7.12502
rthumb 26.1267 -82.8118
lclavicle -1.16786e-014 -1.19271e-015
lhumerus -27.3398 2.52944 79.7559
lradius 44.0733
lwrist -6.26243
lhand -7.76735 -33.8877
lfingers 7.12502
lthumb 18.1327 -4.71288
rfemur -24.8233 20.0143 15.9742
rtibia 19.9544
rfoot -42.2928 -48.0873
rtoes 39.7686
lfemur 16.722 -3.75249 -30.9297
ltibia 15.5552
lfoot -13.234 10.9244
ltoes -30.2921
991
root 18.7029 15.1884 -35.5419 388.993 73.5159 391.627
lowerback 6.37296 -3.17433 -6.87033
upperback -3.80269 -4.94629 -0.946327
thorax -7.09585 -2.10377 3.43435
lowerneck 2.85521 -11.5523 -17.664
upperneck 6.88073 -16.9399 17.8386
head 4.64371 -8.45427 7.48824
rclavicle 9.00495e-014 1.27222e-014
rhumerus -51.6169 6.23702 -76.9224
rradius 37.5851
rwrist 11.1929
rhand 0.938669 -55.1479
rfingers 7.12502
rthumb 26.4891 -83.3163
lclavicle 9.00495e-014 1.27222e-014
lhumerus -27.9328 2.98356 80.0545
lradius 43.9166
lwrist -6.77812
lhand -8.0194 -34.0271
lfingers 7.12502
lthumb 17.8902 -4.82996
rfemur -24.3226 15.8313 17.744
rtibia 19.8602
rfoot -33.8302 -47.2609
rtoes 35.518
lfemur 16.2525 -2.78197 -30.1798
ltibia 17.2128
lfoot -12.0159 10.5273
ltoes -34.6544
992
root 18.8373 15.1991 -35.4626 387.44 73.368 390.301
lowerback 6.42389 -3.21148 -6.73086
upperback -3.79207 -4.97835 -0.783275
thorax -7.10613 -2.12315 3.53525
lowerneck 3.00863 -11.5816 -17.9465
upperneck 6.72896 -16.995 17.8624
head 4.60995 -8.49896 7.5425
rclavicle -5.86415e-014 -2.46493e-014
rhumerus -51.544 6.49349 -76.8613
rradius 37.4575
rwrist 10.9234
rhand 0.393605 -54.5607
rfingers 7.12502
rthumb 25.9673 -82.8067
lclavicle -5.86415e-014 -2.46493e-014
lhumerus -28.4281 3.30204 80.2106
lradius 43.7407
lwrist -6.9196
lhand -7.67633 -34.287
lfingers 7.12502
lthumb 18.2203 -5.12039
rfemur -23.5717 18.2657 17.9049
rtibia 19.8038
rfoot -35.0929 -48.4841
rtoes 38.6404
lfemur 16.0643 -1.70185 -29.2773
ltibia 19.0256
lfoot -11.1781 9.19493
ltoes -33.5315
